<?xml version="1.0" encoding="UTF-8" standalone="no"?>
<!DOCTYPE svg PUBLIC "-//W3C//DTD SVG 1.1//EN" "http://www.w3.org/Graphics/SVG/1.1/DTD/svg11.dtd">
<svg version="1.1" xmlns="http://www.w3.org/2000/svg" xmlns:xlink="http://www.w3.org/1999/xlink" preserveAspectRatio="xMidYMid meet" viewBox="0 0 640 640" width="640" height="640"><defs><path d="M60 200C60 277.32 122.68 340 200 340C277.32 340 340 277.32 340 200C340 122.68 277.32 60 200 60C122.68 60 60 122.68 60 200Z" id="a1ii8sTAYy"></path><path d="M56 200C56 120.6 120.6 56 200 56C279.4 56 344 120.6 344 200C344 279.4 279.4 344 200 344C120.6 344 56 279.4 56 200ZM64 200C64 274.99 125.01 336 200 336C274.99 336 336 274.99 336 200C336 125.01 274.99 64 200 64C125.01 64 64 125.01 64 200Z" id="b2ZFly5W85"></path><path d="M260.98 96.63C258.43 95.12 255.78 93.69 253.11 92.37C252.12 91.88 251.72 90.68 252.2 89.69C252.69 88.69 253.9 88.3 254.88 88.78C257.64 90.14 260.38 91.62 263.02 93.19C263.96 93.75 264.28 94.98 263.72 95.93C263.35 96.56 262.68 96.91 262 96.91C261.65 96.91 261.3 96.82 260.98 96.63ZM272.78 104.59C271.5 103.6 270.18 102.64 268.85 101.71C267.95 101.07 267.73 99.83 268.36 98.92C269 98.01 270.24 97.8 271.15 98.43C272.53 99.4 273.88 100.39 275.22 101.41C276.1 102.08 276.26 103.34 275.59 104.22C275.2 104.73 274.6 105 274 105C273.58 105 273.15 104.86 272.78 104.59Z" id="b9gI1JKHO"></path><path d="M76 200C76 131.63 131.62 76 200 76C214.67 76 229.04 78.54 242.69 83.54C243.73 83.92 244.26 85.07 243.88 86.11C243.5 87.15 242.34 87.68 241.31 87.3C228.1 82.46 214.2 80 200 80C133.83 80 80 133.83 80 200C80 266.17 133.83 320 200 320C266.17 320 320 266.17 320 200C320 166.24 305.66 133.86 280.66 111.15C279.84 110.4 279.78 109.14 280.52 108.32C281.27 107.5 282.53 107.44 283.34 108.18C309.18 131.66 324 165.12 324 200C324 268.37 268.38 324 200 324C131.62 324 76 268.37 76 200Z" id="aw44QGby"></path></defs><g><g><g><use xlink:href="#a1ii8sTAYy" opacity="1" fill="#a1d3a2" fill-opacity="1"></use><g><use xlink:href="#a1ii8sTAYy" opacity="1" fill-opacity="0" stroke="#000000" stroke-width="1" stroke-opacity="0"></use></g></g><g><use xlink:href="#b2ZFly5W85" opacity="1" fill="#1f212b" fill-opacity="1"></use><g><use xlink:href="#b2ZFly5W85" opacity="1" fill-opacity="0" stroke="#000000" stroke-width="1" stroke-opacity="0"></use></g></g><g><use xlink:href="#b9gI1JKHO" opacity="1" fill="#1f212b" fill-opacity="1"></use><g><use xlink:href="#b9gI1JKHO" opacity="1" fill-opacity="0" stroke="#000000" stroke-width="1" stroke-opacity="0"></use></g></g><g><use xlink:href="#aw44QGby" opacity="1" fill="#1f212b" fill-opacity="1"></use><g><use xlink:href="#aw44QGby" opacity="1" fill-opacity="0" stroke="#000000" stroke-width="1" stroke-opacity="0"></use></g></g></g></g></svg>