<?xml version="1.0" encoding="UTF-8" standalone="no"?>
<!DOCTYPE svg PUBLIC "-//W3C//DTD SVG 1.1//EN" "http://www.w3.org/Graphics/SVG/1.1/DTD/svg11.dtd">
<svg version="1.1" xmlns="http://www.w3.org/2000/svg" xmlns:xlink="http://www.w3.org/1999/xlink" preserveAspectRatio="xMidYMid meet" viewBox="0 0 640 640" width="640" height="640"><defs><path d="M116 328C91.7 328 72 308.3 72 284C72 267.2 72 132.8 72 116C72 91.7 91.7 72 116 72C132.8 72 267.2 72 284 72C308.3 72 328 91.7 328 116C328 132.8 328 267.2 328 284C328 308.3 308.3 328 284 328C250.4 328 132.8 328 116 328Z" id="ebY7SbSwIB"></path><path d="M116 312C100.56 312 88 299.44 88 284C88 267.2 88 132.8 88 116C88 100.56 100.56 88 116 88C131 88 251 88 266 88C267.1 88 268 88.9 268 90C268 91.1 267.1 92 266 92C251 92 131 92 116 92C102.76 92 92 102.76 92 116C92 132.8 92 267.2 92 284C92 297.24 102.76 308 116 308C132.8 308 267.2 308 284 308C297.24 308 308 297.24 308 284C308 276 308 212 308 204C308 202.9 308.9 202 310 202C311.1 202 312 202.9 312 204C312 212 312 276 312 284C312 299.44 299.44 312 284 312C250.4 312 132.8 312 116 312ZM308 190C308 188.4 308 175.6 308 174C308 172.9 308.9 172 310 172C311.1 172 312 172.9 312 174C312 175.6 312 188.4 312 190C312 191.1 311.1 192 310 192C308.9 192 308 191.1 308 190ZM308 166C308 165.2 308 158.8 308 158C308 156.9 308.9 156 310 156C311.1 156 312 156.9 312 158C312 158.8 312 165.2 312 166C312 167.1 311.1 168 310 168C308.9 168 308 167.1 308 166Z" id="b2elvv35NN"></path><path d="M116 332C89.53 332 68 310.47 68 284C68 267.2 68 132.8 68 116C68 89.53 89.53 68 116 68C132.8 68 267.2 68 284 68C310.47 68 332 89.53 332 116C332 132.8 332 267.2 332 284C332 310.47 310.47 332 284 332C250.4 332 132.8 332 116 332ZM76 116C76 132.8 76 267.2 76 284C76 306.06 93.94 324 116 324C132.8 324 267.2 324 284 324C306.06 324 324 306.06 324 284C324 267.2 324 132.8 324 116C324 93.94 306.06 76 284 76C272.8 76 216.8 76 116 76C89.33 87.96 76 101.3 76 116Z" id="aInI7a1HT"></path></defs><g><g><g><use xlink:href="#ebY7SbSwIB" opacity="1" fill="#52bfa1" fill-opacity="1"></use><g><use xlink:href="#ebY7SbSwIB" opacity="1" fill-opacity="0" stroke="#000000" stroke-width="1" stroke-opacity="0"></use></g></g><g><use xlink:href="#b2elvv35NN" opacity="1" fill="#1f212b" fill-opacity="1"></use><g><use xlink:href="#b2elvv35NN" opacity="1" fill-opacity="0" stroke="#000000" stroke-width="1" stroke-opacity="0"></use></g></g><g><use xlink:href="#aInI7a1HT" opacity="1" fill="#1f212b" fill-opacity="1"></use><g><use xlink:href="#aInI7a1HT" opacity="1" fill-opacity="0" stroke="#000000" stroke-width="1" stroke-opacity="0"></use></g></g></g></g></svg>